<svg
  width="28"
  height="22"
  viewBox="0 0 28 22"
  fill="none"
  xmlns="http://www.w3.org/2000/svg"
>
  <path
    d="M4.39355 0.688477C6.89528 0.688477 8.12094 1.67409 8.12109 3.74609V7.69043H5.5332V2.87695H3.28711V8.03125L8.12109 11.458V18.2705C8.12109 20.3262 6.92916 21.3125 4.39355 21.3125C1.85827 21.3124 0.701172 20.3261 0.701172 18.2705L0.700195 13.7412H3.28711V19.1396H5.5332V12.6777L0.701172 9.23438V3.74609C0.701322 1.67422 1.89214 0.688597 4.39355 0.688477ZM13.8379 0.6875C16.4752 0.687615 17.6152 1.67395 17.6152 3.74609V10.5312L12.6113 13.7236V19.123H15.0273V14.3096H17.6143V18.2705C17.6143 20.3262 16.4235 21.3125 13.8027 21.3125C11.1821 21.3125 10.0244 20.3262 10.0244 18.2705V3.74609H10.0254C10.0254 1.67382 11.2003 0.6875 13.8379 0.6875ZM23.333 0.6875C25.9537 0.6875 27.1113 1.67378 27.1113 3.72949V18.2539H27.1104C27.1104 20.3261 25.9363 21.3125 23.2988 21.3125C20.6612 21.3125 19.5205 20.3262 19.5205 18.2539V11.4688L24.5254 8.27637V2.87695H22.1084V7.69043H19.5215V3.72949C19.5215 1.67384 20.7124 0.687556 23.333 0.6875ZM22.1084 12.2197V19.1396H24.5254V10.5986L22.1084 12.2197ZM12.6113 11.4014L15.0273 9.78027V2.86035H12.6113V11.4014Z"
    fill="#005F85"
  />
</svg>
